# xmcd
#
# Track frame offsets:
#	150
#	14697
#	42692
#	68935
#	103177
#	127198
#	148316
#	165336
#
# Disc length: 2816 seconds
#
# Revision: 0
# Processed by: cddbd v1.5.1PL2 Copyright (c) Steve Scherf et al.
# Submitted via: dBpowerAMP V4.0
#
DISCID=7d0afe08
DTITLE=Charlie Daniels - Ballad of the Uneasy Rider
DYEAR=1976
DGENRE=Country
TTITLE0=Funky Junky
TTITLE1=Big Man
TTITLE2=Why Can't People
TTITLE3=Revelations
TTITLE4=Uneasy Rider
TTITLE5=Midnight Lady
TTITLE6=Somebody Love You
TTITLE7=No Place To Go
EXTD=
EXTT0=
EXTT1=
EXTT2=
EXTT3=
EXTT4=
EXTT5=
EXTT6=
EXTT7=
PLAYORDER=
